<svg xmlns="http://www.w3.org/2000/svg" version="1.1" xmlns:xlink="http://www.w3.org/1999/xlink" xmlns:svgjs="http://svgjs.dev/svgjs" width="1440" height="560" preserveAspectRatio="none" viewBox="0 0 1440 560"><g mask="url(&quot;#SvgjsMask1322&quot;)" fill="none"><rect width="1440" height="560" x="0" y="0" fill="rgba(230, 64, 82, 1)"></rect><path d="M1292 469.92a5.6 5.6 0 1 0 0.31-11.2 5.6 5.6 0 1 0-0.31 11.2zM1292.44 453.92a5.6 5.6 0 1 0 0.31-11.19 5.6 5.6 0 1 0-0.31 11.19zM1292.88 437.93a5.6 5.6 0 1 0 0.31-11.2 5.6 5.6 0 1 0-0.31 11.2zM1293.32 421.94a5.6 5.6 0 1 0 0.31-11.2 5.6 5.6 0 1 0-0.31 11.2zM1307.11 502.35a5.6 5.6 0 1 0 0.31-11.2 5.6 5.6 0 1 0-0.31 11.2zM1307.55 486.35a5.6 5.6 0 1 0 0.31-11.19 5.6 5.6 0 1 0-0.31 11.19zM1308 470.36a5.6 5.6 0 1 0 0.3-11.2 5.6 5.6 0 1 0-0.3 11.2zM1308.44 454.37a5.6 5.6 0 1 0 0.31-11.2 5.6 5.6 0 1 0-0.31 11.2z" stroke="rgba(255, 111, 110, 1)" stroke-width="1.47"></path><rect width="208.96" height="208.96" clip-path="url(&quot;#SvgjsClipPath1323&quot;)" x="347.54" y="414.2" fill="url(&quot;#SvgjsPattern1324&quot;)" transform="rotate(130.22, 452.02, 518.68)"></rect><path d="M620.58 437.94a5.6 5.6 0 1 0-10.64 3.5 5.6 5.6 0 1 0 10.64-3.5zM605.38 442.94a5.6 5.6 0 1 0-10.63 3.5 5.6 5.6 0 1 0 10.63-3.5zM590.19 447.94a5.6 5.6 0 1 0-10.64 3.5 5.6 5.6 0 1 0 10.64-3.5zM574.99 452.94a5.6 5.6 0 1 0-10.64 3.49 5.6 5.6 0 1 0 10.64-3.49zM645.99 412.75a5.6 5.6 0 1 0-10.64 3.5 5.6 5.6 0 1 0 10.64-3.5zM630.79 417.75a5.6 5.6 0 1 0-10.64 3.5 5.6 5.6 0 1 0 10.64-3.5zM615.59 422.74a5.6 5.6 0 1 0-10.64 3.5 5.6 5.6 0 1 0 10.64-3.5zM600.39 427.74a5.6 5.6 0 1 0-10.64 3.5 5.6 5.6 0 1 0 10.64-3.5z" fill="rgba(255, 111, 110, 1)"></path><circle r="61.38668224887175" cx="345.34" cy="54.35" stroke="rgba(255, 111, 110, 1)" stroke-width="2.35"></circle><circle r="78.6379512251062" cx="819.65" cy="246.22" stroke="rgba(255, 111, 110, 1)" stroke-width="2.18"></circle><rect width="222.36" height="222.36" clip-path="url(&quot;#SvgjsClipPath1325&quot;)" x="1141.35" y="95.26" fill="url(&quot;#SvgjsPattern1326&quot;)" transform="rotate(350.6, 1252.53, 206.44)"></rect><path d="M1322.6599999999999 168.22 L1261.6 155.29000000000002L1264.4297014153178 189.45529858468205z" stroke="rgba(255, 111, 110, 1)" stroke-width="1"></path><path d="M941.96 184.45a5.6 5.6 0 1 0 11-2.09 5.6 5.6 0 1 0-11 2.09zM957.68 181.47a5.6 5.6 0 1 0 11-2.08 5.6 5.6 0 1 0-11 2.08zM973.4 178.5a5.6 5.6 0 1 0 11-2.08 5.6 5.6 0 1 0-11 2.08zM989.12 175.53a5.6 5.6 0 1 0 11.01-2.09 5.6 5.6 0 1 0-11.01 2.09z" fill="rgba(223, 193, 22, 1)"></path><rect width="280.8" height="280.8" clip-path="url(&quot;#SvgjsClipPath1327&quot;)" x="1060.95" y="-28.82" fill="url(&quot;#SvgjsPattern1328&quot;)" transform="rotate(127.01, 1201.35, 111.58)"></rect><path d="M1323.03 95.42L1312.69 87.87 1317.79 76.12 1307.44 68.57 1312.54 56.82 1302.2 49.27 1307.29 37.52M1330.75 93.32L1320.41 85.77 1325.51 74.02 1315.16 66.47 1320.26 54.72 1309.91 47.17 1315.01 35.42" stroke="rgba(255, 111, 110, 1)" stroke-width="1" stroke-dasharray="3, 3"></path><rect width="205.44" height="205.44" clip-path="url(&quot;#SvgjsClipPath1329&quot;)" x="476.06" y="14.06" fill="url(&quot;#SvgjsPattern1330&quot;)" transform="rotate(72.53, 578.78, 116.78)"></rect><rect width="281.28000000000003" height="281.28000000000003" clip-path="url(&quot;#SvgjsClipPath1331&quot;)" x="890.57" y="190.77" fill="url(&quot;#SvgjsPattern1332&quot;)" transform="rotate(160.42, 1031.21, 331.41)"></rect></g><defs><mask id="SvgjsMask1322"><rect width="1440" height="560" fill="#ffffff"></rect></mask><pattern x="0" y="0" width="13.06" height="13.06" patternUnits="userSpaceOnUse" id="SvgjsPattern1324"><path d="M6.53 1L6.53 12.06M1 6.53L12.06 6.53" stroke="rgba(223, 193, 22, 1)" fill="none" stroke-width="1"></path></pattern><clipPath id="SvgjsClipPath1323"><circle r="52.24" cx="452.02" cy="518.68"></circle></clipPath><pattern x="0" y="0" width="222.36" height="6.54" patternUnits="userSpaceOnUse" id="SvgjsPattern1326"><rect width="222.36" height="3.27" x="0" y="0" fill="rgba(255, 111, 110, 1)"></rect><rect width="222.36" height="3.27" x="0" y="3.27" fill="rgba(0, 0, 0, 0)"></rect></pattern><clipPath id="SvgjsClipPath1325"><circle r="55.59" cx="1252.53" cy="206.44"></circle></clipPath><pattern x="0" y="0" width="9.36" height="9.36" patternUnits="userSpaceOnUse" id="SvgjsPattern1328"><path d="M4.68 1L4.68 8.36M1 4.68L8.36 4.68" stroke="rgba(255, 111, 110, 1)" fill="none" stroke-width="1"></path></pattern><clipPath id="SvgjsClipPath1327"><circle r="70.2" cx="1201.35" cy="111.58"></circle></clipPath><pattern x="0" y="0" width="12.84" height="12.84" patternUnits="userSpaceOnUse" id="SvgjsPattern1330"><path d="M6.42 1L6.42 11.84M1 6.42L11.84 6.42" stroke="rgba(255, 111, 110, 1)" fill="none" stroke-width="4.31"></path></pattern><clipPath id="SvgjsClipPath1329"><circle r="51.36" cx="578.78" cy="116.78"></circle></clipPath><pattern x="0" y="0" width="11.72" height="11.72" patternUnits="userSpaceOnUse" id="SvgjsPattern1332"><path d="M0 11.72L5.86 0L11.72 11.72" stroke="rgba(223, 193, 22, 1)" fill="none"></path></pattern><clipPath id="SvgjsClipPath1331"><circle r="70.32000000000001" cx="1031.21" cy="331.41"></circle></clipPath></defs></svg>