<svg xmlns="http://www.w3.org/2000/svg" version="1.1" xmlns:xlink="http://www.w3.org/1999/xlink" xmlns:svgjs="http://svgjs.dev/svgjs" width="500" height="500" preserveAspectRatio="none" viewBox="0 0 500 500"><g mask="url(&quot;#SvgjsMask4331&quot;)" fill="none"><rect width="500" height="500" x="0" y="0" fill="url(&quot;#SvgjsLinearGradient4332&quot;)"></rect><use xlink:href="#SvgjsPath4333" x="30" y="30" stroke="rgba(255, 220, 149, 1)"></use><use xlink:href="#SvgjsPath4334" x="30" y="90" stroke="rgba(255, 220, 149, 1)"></use><use xlink:href="#SvgjsPath4333" x="30" y="150" stroke="rgba(255, 220, 149, 1)"></use><use xlink:href="#SvgjsPath4335" x="30" y="210" stroke="rgba(255, 220, 149, 1)"></use><use xlink:href="#SvgjsPath4333" x="30" y="270" stroke="rgba(255, 220, 149, 1)"></use><use xlink:href="#SvgjsPath4336" x="30" y="330" stroke="rgba(255, 220, 149, 1)"></use><use xlink:href="#SvgjsPath4334" x="30" y="390" stroke="rgba(255, 220, 149, 1)"></use><use xlink:href="#SvgjsPath4334" x="30" y="450" stroke="rgba(255, 220, 149, 1)"></use><use xlink:href="#SvgjsPath4333" x="30" y="510" stroke="rgba(255, 220, 149, 1)"></use><use xlink:href="#SvgjsPath4333" x="90" y="30" stroke="rgba(255, 220, 149, 1)"></use><use xlink:href="#SvgjsPath4333" x="90" y="90" stroke="rgba(255, 220, 149, 1)"></use><use xlink:href="#SvgjsPath4335" x="90" y="150" stroke="rgba(255, 220, 149, 1)"></use><use xlink:href="#SvgjsPath4334" x="90" y="210" stroke="rgba(255, 220, 149, 1)"></use><use xlink:href="#SvgjsPath4335" x="90" y="270" stroke="rgba(255, 220, 149, 1)"></use><use xlink:href="#SvgjsPath4334" x="90" y="330" stroke="rgba(255, 220, 149, 1)"></use><use xlink:href="#SvgjsPath4334" x="90" y="390" stroke="rgba(255, 220, 149, 1)"></use><use xlink:href="#SvgjsPath4333" x="90" y="450" stroke="rgba(255, 220, 149, 1)"></use><use xlink:href="#SvgjsPath4335" x="90" y="510" stroke="rgba(255, 220, 149, 1)"></use><use xlink:href="#SvgjsPath4333" x="150" y="30" stroke="rgba(255, 220, 149, 1)"></use><use xlink:href="#SvgjsPath4334" x="150" y="90" stroke="rgba(255, 220, 149, 1)"></use><use xlink:href="#SvgjsPath4337" x="150" y="150" stroke="rgba(255, 220, 149, 1)"></use><use xlink:href="#SvgjsPath4334" x="150" y="210" stroke="rgba(255, 220, 149, 1)"></use><use xlink:href="#SvgjsPath4333" x="150" y="270" stroke="rgba(255, 220, 149, 1)"></use><use xlink:href="#SvgjsPath4337" x="150" y="330" stroke="rgba(255, 220, 149, 1)"></use><use xlink:href="#SvgjsPath4333" x="150" y="390" stroke="rgba(255, 220, 149, 1)"></use><use xlink:href="#SvgjsPath4333" x="150" y="450" stroke="rgba(255, 220, 149, 1)"></use><use xlink:href="#SvgjsPath4334" x="150" y="510" stroke="rgba(255, 220, 149, 1)"></use><use xlink:href="#SvgjsPath4338" x="210" y="30" stroke="rgba(255, 220, 149, 1)" stroke-width="3"></use><use xlink:href="#SvgjsPath4334" x="210" y="90" stroke="rgba(255, 220, 149, 1)"></use><use xlink:href="#SvgjsPath4337" x="210" y="150" stroke="rgba(255, 220, 149, 1)"></use><use xlink:href="#SvgjsPath4335" x="210" y="210" stroke="rgba(255, 220, 149, 1)"></use><use xlink:href="#SvgjsPath4336" x="210" y="270" stroke="rgba(255, 220, 149, 1)"></use><use xlink:href="#SvgjsPath4333" x="210" y="330" stroke="rgba(255, 220, 149, 1)"></use><use xlink:href="#SvgjsPath4334" x="210" y="390" stroke="rgba(255, 220, 149, 1)"></use><use xlink:href="#SvgjsPath4335" x="210" y="450" stroke="rgba(255, 220, 149, 1)"></use><use xlink:href="#SvgjsPath4333" x="210" y="510" stroke="rgba(255, 220, 149, 1)"></use><use xlink:href="#SvgjsPath4334" x="270" y="30" stroke="rgba(255, 220, 149, 1)"></use><use xlink:href="#SvgjsPath4333" x="270" y="90" stroke="rgba(255, 220, 149, 1)"></use><use xlink:href="#SvgjsPath4333" x="270" y="150" stroke="rgba(255, 220, 149, 1)"></use><use xlink:href="#SvgjsPath4333" x="270" y="210" stroke="rgba(255, 220, 149, 1)"></use><use xlink:href="#SvgjsPath4334" x="270" y="270" stroke="rgba(255, 220, 149, 1)"></use><use xlink:href="#SvgjsPath4337" x="270" y="330" stroke="rgba(255, 220, 149, 1)"></use><use xlink:href="#SvgjsPath4333" x="270" y="390" stroke="rgba(255, 220, 149, 1)"></use><use xlink:href="#SvgjsPath4336" x="270" y="450" stroke="rgba(255, 220, 149, 1)"></use><use xlink:href="#SvgjsPath4333" x="270" y="510" stroke="rgba(255, 220, 149, 1)"></use><use xlink:href="#SvgjsPath4333" x="330" y="30" stroke="rgba(255, 220, 149, 1)"></use><use xlink:href="#SvgjsPath4333" x="330" y="90" stroke="rgba(255, 220, 149, 1)"></use><use xlink:href="#SvgjsPath4337" x="330" y="150" stroke="rgba(255, 220, 149, 1)"></use><use xlink:href="#SvgjsPath4334" x="330" y="210" stroke="rgba(255, 220, 149, 1)"></use><use xlink:href="#SvgjsPath4335" x="330" y="270" stroke="rgba(255, 220, 149, 1)"></use><use xlink:href="#SvgjsPath4334" x="330" y="330" stroke="rgba(255, 220, 149, 1)"></use><use xlink:href="#SvgjsPath4333" x="330" y="390" stroke="rgba(255, 220, 149, 1)"></use><use xlink:href="#SvgjsPath4338" x="330" y="450" stroke="rgba(255, 220, 149, 1)" stroke-width="3"></use><use xlink:href="#SvgjsPath4334" x="330" y="510" stroke="rgba(255, 220, 149, 1)"></use><use xlink:href="#SvgjsPath4336" x="390" y="30" stroke="rgba(255, 220, 149, 1)"></use><use xlink:href="#SvgjsPath4337" x="390" y="90" stroke="rgba(255, 220, 149, 1)"></use><use xlink:href="#SvgjsPath4334" x="390" y="150" stroke="rgba(255, 220, 149, 1)"></use><use xlink:href="#SvgjsPath4334" x="390" y="210" stroke="rgba(255, 220, 149, 1)"></use><use xlink:href="#SvgjsPath4334" x="390" y="270" stroke="rgba(255, 220, 149, 1)"></use><use xlink:href="#SvgjsPath4334" x="390" y="330" stroke="rgba(255, 220, 149, 1)"></use><use xlink:href="#SvgjsPath4337" x="390" y="390" stroke="rgba(255, 220, 149, 1)"></use><use xlink:href="#SvgjsPath4334" x="390" y="450" stroke="rgba(255, 220, 149, 1)"></use><use xlink:href="#SvgjsPath4334" x="390" y="510" stroke="rgba(255, 220, 149, 1)"></use><use xlink:href="#SvgjsPath4334" x="450" y="30" stroke="rgba(255, 220, 149, 1)"></use><use xlink:href="#SvgjsPath4334" x="450" y="90" stroke="rgba(255, 220, 149, 1)"></use><use xlink:href="#SvgjsPath4333" x="450" y="150" stroke="rgba(255, 220, 149, 1)"></use><use xlink:href="#SvgjsPath4335" x="450" y="210" stroke="rgba(255, 220, 149, 1)"></use><use xlink:href="#SvgjsPath4338" x="450" y="270" stroke="rgba(255, 220, 149, 1)" stroke-width="3"></use><use xlink:href="#SvgjsPath4335" x="450" y="330" stroke="rgba(255, 220, 149, 1)"></use><use xlink:href="#SvgjsPath4337" x="450" y="390" stroke="rgba(255, 220, 149, 1)"></use><use xlink:href="#SvgjsPath4335" x="450" y="450" stroke="rgba(255, 220, 149, 1)"></use><use xlink:href="#SvgjsPath4333" x="450" y="510" stroke="rgba(255, 220, 149, 1)"></use><use xlink:href="#SvgjsPath4333" x="510" y="30" stroke="rgba(255, 220, 149, 1)"></use><use xlink:href="#SvgjsPath4334" x="510" y="90" stroke="rgba(255, 220, 149, 1)"></use><use xlink:href="#SvgjsPath4336" x="510" y="150" stroke="rgba(255, 220, 149, 1)"></use><use xlink:href="#SvgjsPath4337" x="510" y="210" stroke="rgba(255, 220, 149, 1)"></use><use xlink:href="#SvgjsPath4333" x="510" y="270" stroke="rgba(255, 220, 149, 1)"></use><use xlink:href="#SvgjsPath4334" x="510" y="330" stroke="rgba(255, 220, 149, 1)"></use><use xlink:href="#SvgjsPath4335" x="510" y="390" stroke="rgba(255, 220, 149, 1)"></use><use xlink:href="#SvgjsPath4338" x="510" y="450" stroke="rgba(255, 220, 149, 1)" stroke-width="3"></use><use xlink:href="#SvgjsPath4333" x="510" y="510" stroke="rgba(255, 220, 149, 1)"></use></g><defs><mask id="SvgjsMask4331"><rect width="500" height="500" fill="#ffffff"></rect></mask><linearGradient x1="100%" y1="50%" x2="0%" y2="50%" gradientUnits="userSpaceOnUse" id="SvgjsLinearGradient4332"><stop stop-color="rgba(251, 212, 12, 1)" offset="0"></stop><stop stop-color="rgba(254, 197, 43, 1)" offset="1"></stop></linearGradient><path d="M-1 0 a1 1 0 1 0 2 0 a1 1 0 1 0 -2 0z" id="SvgjsPath4336"></path><path d="M-3 0 a3 3 0 1 0 6 0 a3 3 0 1 0 -6 0z" id="SvgjsPath4337"></path><path d="M-5 0 a5 5 0 1 0 10 0 a5 5 0 1 0 -10 0z" id="SvgjsPath4334"></path><path d="M2 -2 L-2 2z" id="SvgjsPath4335"></path><path d="M6 -6 L-6 6z" id="SvgjsPath4333"></path><path d="M30 -30 L-30 30z" id="SvgjsPath4338"></path></defs></svg>